@startuml
'https://plantuml.com/class-diagram

class HandlerMethod {
    -Object : bean
    -Method : method
    -Method : bridgedMethod
    -MethodParameter[] : parameters
    -HandlerMethod : resolvedFromHandlerMethod
}

note right of HandlerMethod
HandlerMethod封装了很多属性，
在访问请求方法的时候可以方便的访问到方法、方法参数、方法上的注解、所属类等
并且对方法参数封装处理，
也可以方便的访问到方法参数的注解等信息。
end note

class InvocableHandlerMethod {
    #Object : doInvoke()
    +Object : invokeForRequest()
    #Object[] : getMethodArgumentValues()
}

note right of InvocableHandlerMethod : 可以调用的HandlerMethod类

note right of InvocableHandlerMethod::doInvoke
添加了方法的调用.
return method.invoke(getBean(), args);
end note

note right of InvocableHandlerMethod::invokeForRequest
获取参数, 调用doInvoke方法.
end note

note right of InvocableHandlerMethod::getMethodArgumentValues
3个参数 TODO
1. NativeWebRequest request
2. @Nullable ModelAndViewContainer mavContainer
3. Object... providedArgs

end note

class ServletInvocableHandlerMethod

note right of ServletInvocableHandlerMethod
添加了支持Response status.
end note

HandlerMethod <|-- InvocableHandlerMethod
InvocableHandlerMethod <|-- ServletInvocableHandlerMethod

@enduml